# xmcd CD database file
# Copyright (C) 1993-1998 Ti Kan
#
# Track frame offsets:
# 150
# 15884
# 34497
# 53934
# 72088
# 86765
# 103240
# 126979
# 143503
# 169894
#
# Disc length: 2539 seconds
# Revision: 0
# Processed by: cddbd v1.4b41PL1 Copyright (c) Steve Scherf et al.
# Submitted via: CDSpectrumPro v3.2.328
#
DISCID=8709e90a
DTITLE=Slam Allen - Things Sho' Done Changed
DYEAR=1900
DGENRE=
TTITLE0=Sittin' In My Window
TTITLE1=Ain't Nobody Got The Blues
TTITLE2=Let Love Go
TTITLE3=Clear My Mind
TTITLE4=Just Give Me Your Love
TTITLE5=I Just Want You
TTITLE6=Things Sho' Done Changed
TTITLE7=Last One To Know
TTITLE8=Sometimes You Got To Have Rain
TTITLE9=everybody Needs Love
EXTD=
EXTT0=
EXTT1=With Ray Shinnery
EXTT2=
EXTT3=
EXTT4=
EXTT5=
EXTT6=
EXTT7=
EXTT8=
EXTT9=Extra live track. With Bill Sims
PLAYORDER=
